<svg width="96" height="86" viewBox="0 0 96 86" fill="none" xmlns="http://www.w3.org/2000/svg" role="img" aria-labelledby="title desc">
  <title id="title">顾家 icon</title>
  <desc id="desc">Warm orange house outline with an intertwined heart and a sweeping base line.</desc>
  <path d="M13.5 57.5V28.8L48.3 7.8L83.2 28.8V58" stroke="#D9833F" stroke-width="5.8" stroke-linecap="round" stroke-linejoin="round"/>
  <path d="M83.2 28.8C88 30.6 89.5 35.4 89 41.4" stroke="#BE8C53" stroke-width="5.8" stroke-linecap="round"/>
  <path d="M13.5 57.5C25.9 65.9 40.4 67.7 54.6 61.8C66.6 56.8 75.6 53.8 88.5 60.6" stroke="#D9833F" stroke-width="5.2" stroke-linecap="round"/>
  <path d="M48.2 52.3C34.8 41.6 30.2 35.7 30.2 28.6C30.2 22.3 34.8 18.1 40.6 18.1C44.3 18.1 46.9 20 48.3 23.1C49.8 20 52.6 18.1 56.3 18.1C62.1 18.1 66.7 22.3 66.7 28.6C66.7 35.7 61.8 41.7 48.2 52.3Z" stroke="#D9833F" stroke-width="5.1" stroke-linejoin="round"/>
  <path d="M49 52.5C53.7 57.7 60.4 61.3 67 62.4" stroke="#D9833F" stroke-width="5.1" stroke-linecap="round"/>
</svg>
